<svg width="20" height="20" viewBox="0 0 20 20" fill="none" xmlns="http://www.w3.org/2000/svg">
<g id="CheckFat">
<path id="Vector" d="M19.0086 7.1025L8.97733 17.1337C8.74293 17.368 8.42511 17.4996 8.09373 17.4996C7.76235 17.4996 7.44454 17.368 7.21014 17.1337L1.61483 11.5087C1.38082 11.2744 1.24939 10.9567 1.24939 10.6255C1.24939 10.2944 1.38082 9.97671 1.61483 9.74234L3.17733 8.17984C3.41159 7.94655 3.72874 7.81557 4.05936 7.81557C4.38997 7.81557 4.70712 7.94655 4.94139 8.17984L8.12498 11.2673L15.6844 3.80094C15.9187 3.56741 16.236 3.43628 16.5668 3.43628C16.8976 3.43628 17.2149 3.56741 17.4492 3.80094L19.0078 5.3275C19.125 5.44365 19.2181 5.58186 19.2816 5.73416C19.3451 5.88645 19.3779 6.04982 19.3779 6.21484C19.378 6.37985 19.3454 6.54325 19.282 6.6956C19.2186 6.84795 19.1257 6.98624 19.0086 7.1025Z" fill="#161819"/>
</g>
</svg>
