<svg width="16" height="16" viewBox="0 0 16 16" fill="none" xmlns="http://www.w3.org/2000/svg">
<g id="Iconset">
<path id="Vector" d="M13.5306 10.5306C13.4609 10.6005 13.3781 10.656 13.287 10.6939C13.1958 10.7317 13.0981 10.7512 12.9993 10.7512C12.9006 10.7512 12.8029 10.7317 12.7117 10.6939C12.6206 10.656 12.5378 10.6005 12.4681 10.5306L7.99997 6.06249L3.5306 10.5306C3.3897 10.6715 3.19861 10.7507 2.99935 10.7507C2.80009 10.7507 2.60899 10.6715 2.4681 10.5306C2.3272 10.3897 2.24805 10.1986 2.24805 9.99937C2.24805 9.80011 2.3272 9.60902 2.4681 9.46812L7.4681 4.46812C7.53778 4.3982 7.62057 4.34272 7.71173 4.30487C7.8029 4.26701 7.90064 4.24753 7.99935 4.24753C8.09806 4.24753 8.1958 4.26701 8.28696 4.30487C8.37813 4.34272 8.46092 4.3982 8.5306 4.46812L13.5306 9.46812C13.6005 9.5378 13.656 9.62059 13.6938 9.71176C13.7317 9.80292 13.7512 9.90066 13.7512 9.99937C13.7512 10.0981 13.7317 10.1958 13.6938 10.287C13.656 10.3781 13.6005 10.4609 13.5306 10.5306Z" fill="#A8A8A8"/>
</g>
</svg>
