<svg width="22" height="22" viewBox="0 0 22 22" fill="none" xmlns="http://www.w3.org/2000/svg">
<g id="Wallet Connect Icon Container">
<path id="Vector" d="M20.7541 1.07691L12.3038 7.29728L13.8826 3.61467L20.7541 1.07691Z" fill="#E17726" stroke="#E17726" stroke-width="0.144217" stroke-linecap="round" stroke-linejoin="round"/>
<path id="Vector_2" d="M1.3208 1.00414L9.6475 7.34645L8.17313 3.59324L1.3208 1.00414Z" fill="#E27625" stroke="#E27625" stroke-width="0.144217" stroke-linecap="round" stroke-linejoin="round"/>
<path id="Vector_3" d="M17.6705 15.5579L15.4159 18.9846L20.2078 20.3218L21.5962 15.6484L17.6705 15.5579Z" fill="#E27625" stroke="#E27625" stroke-width="0.144217" stroke-linecap="round" stroke-linejoin="round"/>
<path id="Vector_4" d="M0.377646 15.5687L1.72269 20.2523L6.52447 18.9511L4.30391 15.5076L0.377646 15.5687Z" fill="#E27625" stroke="#E27625" stroke-width="0.144217" stroke-linecap="round" stroke-linejoin="round"/>
<path id="Vector_5" d="M6.29656 9.71101L4.95234 11.7285L9.70648 11.9579L9.5648 6.83824L6.29656 9.71101Z" fill="#E27625" stroke="#E27625" stroke-width="0.144217" stroke-linecap="round" stroke-linejoin="round"/>
<path id="Vector_6" d="M15.7129 9.74637L12.4157 6.78987L12.2863 11.9677L17.042 11.7738L15.7129 9.74637Z" fill="#E27625" stroke="#E27625" stroke-width="0.144217" stroke-linecap="round" stroke-linejoin="round"/>
<path id="Vector_7" d="M6.52418 18.9513L9.39814 17.5652L6.93418 15.6273L6.52418 18.9513Z" fill="#E27625" stroke="#E27625" stroke-width="0.144217" stroke-linecap="round" stroke-linejoin="round"/>
<path id="Vector_8" d="M12.5528 17.5772L15.4164 18.9848L15.0312 15.6579L12.5528 17.5772Z" fill="#E27625" stroke="#E27625" stroke-width="0.144217" stroke-linecap="round" stroke-linejoin="round"/>
<path id="Vector_9" d="M15.4162 18.9841L12.5527 17.5765L12.7741 19.4476L12.7462 20.2343L15.4162 18.9841Z" fill="#D5BFB2" stroke="#D5BFB2" stroke-width="0.144217" stroke-linecap="round" stroke-linejoin="round"/>
<path id="Vector_10" d="M6.52456 18.951L9.18522 20.2211L9.17149 19.4343L9.39852 17.5648L6.52456 18.951Z" fill="#D5BFB2" stroke="#D5BFB2" stroke-width="0.144217" stroke-linecap="round" stroke-linejoin="round"/>
<path id="Vector_11" d="M9.25762 14.4004L6.87407 13.6897L8.56052 12.9259L9.25762 14.4004Z" fill="#233447" stroke="#233447" stroke-width="0.144217" stroke-linecap="round" stroke-linejoin="round"/>
<path id="Vector_12" d="M12.7171 14.4134L13.4253 12.9442L15.1143 13.7206L12.7171 14.4134Z" fill="#233447" stroke="#233447" stroke-width="0.144217" stroke-linecap="round" stroke-linejoin="round"/>
<path id="Vector_13" d="M6.52451 18.9512L6.95158 15.5173L4.30343 15.5832L6.52451 18.9512Z" fill="#CC6228" stroke="#CC6228" stroke-width="0.144217" stroke-linecap="round" stroke-linejoin="round"/>
<path id="Vector_14" d="M15.0146 15.5477L15.416 18.9848L17.6706 15.6335L15.0146 15.5477Z" fill="#CC6228" stroke="#CC6228" stroke-width="0.144217" stroke-linecap="round" stroke-linejoin="round"/>
<path id="Vector_15" d="M17.042 11.7734L12.2863 11.9673L12.7172 14.4131L13.4252 12.9441L15.1139 13.7204L17.042 11.7734Z" fill="#CC6228" stroke="#CC6228" stroke-width="0.144217" stroke-linecap="round" stroke-linejoin="round"/>
<path id="Vector_16" d="M6.87398 13.6898L8.56016 12.9261L9.25715 14.4004L9.70629 11.9579L4.95215 11.7284L6.87398 13.6898Z" fill="#CC6228" stroke="#CC6228" stroke-width="0.144217" stroke-linecap="round" stroke-linejoin="round"/>
<path id="Vector_17" d="M4.95215 11.7284L6.93423 15.6275L6.87398 13.6898L4.95215 11.7284Z" fill="#E27525" stroke="#E27525" stroke-width="0.144217" stroke-linecap="round" stroke-linejoin="round"/>
<path id="Vector_18" d="M15.1139 13.7206L15.0309 15.6578L17.042 11.7736L15.1139 13.7206Z" fill="#E27525" stroke="#E27525" stroke-width="0.144217" stroke-linecap="round" stroke-linejoin="round"/>
<path id="Vector_19" d="M9.70611 11.9578L9.25697 14.4003L9.8045 17.2873L9.93704 13.4895L9.70611 11.9578Z" fill="#E27525" stroke="#E27525" stroke-width="0.144217" stroke-linecap="round" stroke-linejoin="round"/>
<path id="Vector_20" d="M12.2859 11.9675L12.0519 13.4892L12.1477 17.2962L12.7168 14.4133L12.2859 11.9675Z" fill="#E27525" stroke="#E27525" stroke-width="0.144217" stroke-linecap="round" stroke-linejoin="round"/>
<path id="Vector_21" d="M12.7168 14.4131L12.1477 17.296L12.5525 17.5767L15.0305 15.6576L15.1136 13.7204L12.7168 14.4131Z" fill="#F5841F" stroke="#F5841F" stroke-width="0.144217" stroke-linecap="round" stroke-linejoin="round"/>
<path id="Vector_22" d="M6.87402 13.6896L6.93427 15.6274L9.39785 17.5649L9.80473 17.2873L9.2572 14.4002L6.87402 13.6896Z" fill="#F5841F" stroke="#F5841F" stroke-width="0.144217" stroke-linecap="round" stroke-linejoin="round"/>
<path id="Vector_23" d="M12.7466 20.234L12.7745 19.4474L12.5644 19.2608L9.37428 19.2488L9.17107 19.4339L9.1848 20.2207L6.52441 18.9506L7.45244 19.715L9.3426 21.0338L12.5827 21.0459L14.4827 19.7413L15.4164 18.9839L12.7466 20.234Z" fill="#C0AC9D" stroke="#C0AC9D" stroke-width="0.144217" stroke-linecap="round" stroke-linejoin="round"/>
<path id="Vector_24" d="M12.5531 17.5769L12.1483 17.2963L9.80502 17.2875L9.39815 17.5651L9.17116 19.4343L9.37435 19.2492L12.5643 19.2612L12.7744 19.4478L12.5531 17.5769Z" fill="#161616" stroke="#161616" stroke-width="0.144217" stroke-linecap="round" stroke-linejoin="round"/>
<path id="Vector_25" d="M21.0843 7.73662L21.8081 4.28749L20.7542 1.07672L12.5921 7.08732L15.7132 9.74663L20.1327 11.0582L21.1103 9.91933L20.6881 9.61357L21.3671 8.99774L20.8528 8.58996L21.5314 8.07664L21.0843 7.73662Z" fill="#763E1A" stroke="#763E1A" stroke-width="0.144217" stroke-linecap="round" stroke-linejoin="round"/>
<path id="Vector_26" d="M0.242886 4.20654L0.949166 7.66102L0.491217 7.99766L1.16598 8.51604L0.648607 8.91996L1.32299 9.54085L0.898499 9.84344L1.86759 10.9896L6.29677 9.71113L9.43762 7.07525L1.32076 1.00374L0.242886 4.20654Z" fill="#763E1A" stroke="#763E1A" stroke-width="0.144217" stroke-linecap="round" stroke-linejoin="round"/>
<path id="Vector_27" d="M20.1322 11.058L15.7128 9.74645L17.0419 11.774L15.0306 15.6584L17.67 15.6341L21.596 15.6488L20.1322 11.058Z" fill="#F5841F" stroke="#F5841F" stroke-width="0.144217" stroke-linecap="round" stroke-linejoin="round"/>
<path id="Vector_28" d="M6.29679 9.71119L1.86761 10.9897L0.377904 15.5693L4.30388 15.584L6.93468 15.628L4.9525 11.7288L6.29679 9.71119Z" fill="#F5841F" stroke="#F5841F" stroke-width="0.144217" stroke-linecap="round" stroke-linejoin="round"/>
<path id="Vector_29" d="M12.286 11.9673L12.5918 7.08678L13.8823 3.61411L8.17236 3.59275L9.43683 7.07498L9.70607 11.9576L9.81031 13.4972L9.80446 17.2872L12.1478 17.2959L12.1703 13.506L12.286 11.9673Z" fill="#F5841F" stroke="#F5841F" stroke-width="0.144217" stroke-linecap="round" stroke-linejoin="round"/>
</g>
</svg>
